# Blender 4.1.1
# www.blender.org
mtllib player.mtl
o 立方体.001
v 2.171095 -0.119324 -3.382455
v 2.171095 -0.116215 -3.382455
v 2.171096 -0.119324 3.382455
v 2.171096 -0.116215 3.382455
v -0.101786 -0.852250 0.000000
v -0.101786 0.616712 0.000000
v -1.000000 -0.790485 0.000000
v -1.000000 0.709160 0.000000
v -0.101786 0.616712 1.691228
v -1.000000 -0.790485 1.691228
v -0.101786 -0.852250 1.691228
v -1.000000 0.709160 1.691228
v -0.101786 -0.852250 -1.691228
v -1.000000 0.709160 -1.691227
v -0.101786 0.616712 -1.691228
v -1.000000 -0.790485 -1.691227
v 0.000000 -0.119324 3.382455
v 0.000000 0.111918 3.382455
v -0.000000 -0.119324 -3.382455
v -0.000000 0.111918 -3.382455
v -0.550893 0.844845 0.000000
v -0.550893 -0.852250 0.000000
v -0.550893 -0.852250 1.691228
v -0.550893 0.844845 1.691228
v -0.550893 0.844845 -1.691228
v -0.550893 -0.852250 -1.691228
v -1.000000 -0.790485 -1.691227
v -0.239454 -0.057558 -3.382455
v -0.239454 -0.023767 -3.382455
v -1.000000 0.709160 -1.691227
v -0.239453 -0.057558 3.382455
v -1.000000 -0.790485 1.691228
v -1.000000 0.709160 1.691228
v -0.239453 -0.023767 3.382455
v 4.456394 0.754336 -1.000000
v 4.456394 0.754336 1.000000
v 4.456394 0.000000 -1.000000
v 4.456394 0.000000 1.000000
v -4.456394 0.000000 1.000000
v -4.456394 0.000000 -1.000000
v -4.456394 0.352614 -1.000000
v -1.571386 1.000000 -1.000000
v -1.571385 1.000000 1.000000
v -4.456394 0.352614 1.000000
v -3.874733 -1.000000 -1.000000
v -4.456394 -0.869477 -1.000000
v -4.456394 -0.869477 1.000000
v -3.874733 -1.000000 1.000000
v 4.456394 -0.203496 -1.000000
v 0.906857 -1.000000 -1.000000
v 0.906857 -1.000000 1.000000
v 4.456394 -0.203496 1.000000
vn 0.5970 -0.0000 -0.8023
vn -0.2540 0.8406 0.4785
vn -0.2540 0.8406 -0.4785
vn -0.0000 -0.0000 -1.0000
vn -0.0000 1.0000 -0.0000
vn 0.4405 0.8672 -0.2323
vn 0.4529 0.8916 -0.0000
vn -0.1362 -0.9907 -0.0000
vn -1.0000 -0.0000 -0.0000
vn 1.0000 -0.0000 -0.0000
vn -0.1223 -0.8894 0.4404
vn -0.0000 -0.0000 1.0000
vn 0.4405 0.8672 0.2323
vn 0.5970 -0.0000 0.8023
vn -0.0000 -1.0000 -0.0000
vn -0.2892 0.9573 -0.0000
vn -0.0000 -0.9175 0.3976
vn -0.0000 -0.9175 -0.3976
vn -0.1223 -0.8894 -0.4404
vn -0.9120 -0.0000 0.4101
vn -0.9120 -0.0000 -0.4101
vn -0.2190 0.9757 -0.0000
vn 0.0407 0.9992 -0.0000
vn -0.2190 -0.9757 -0.0000
vn 0.2190 -0.9757 -0.0000
vn -0.4342 0.7663 0.4735
vn -0.4342 0.7663 -0.4735
vn 0.1004 0.9550 -0.2790
vn -0.2233 -0.8657 0.4479
vn 0.1004 0.9550 0.2790
vn -0.2233 -0.8657 -0.4479
vt 0.862475 0.347399
vt 0.725074 0.381749
vt 0.725074 0.347399
vt 0.914725 0.519150
vt 0.931175 0.553500
vt 0.862475 0.553500
vt 0.931175 0.622201
vt 0.914725 0.656551
vt 0.862475 0.622201
vt 0.725074 0.725251
vt 0.862475 0.793952
vt 0.725074 0.793952
vt 0.725074 0.622201
vt 0.999876 0.622201
vt 0.931175 0.656551
vt 0.999876 0.553500
vt 0.931175 0.587850
vt 0.725074 0.553500
vt 0.656373 0.587850
vt 0.656374 0.553500
vt 0.725074 0.587850
vt 0.862475 0.278698
vt 0.725074 0.313048
vt 0.725074 0.278698
vt 0.672824 0.519150
vt 0.725074 0.450449
vt 0.862475 0.466900
vt 0.725074 0.466900
vt 0.931175 0.519150
vt 0.862475 0.313048
vt 0.862475 0.244348
vt 0.725074 0.244348
vt 0.999876 0.587850
vt 0.656373 0.622201
vt 0.862475 0.587850
vt 0.587673 0.622201
vt 0.587673 0.587850
vt 0.656374 0.519150
vt 0.587673 0.553500
vt 0.587673 0.519150
vt 0.656374 0.656551
vt 0.587673 0.656551
vt 0.672824 0.656551
vt 0.862475 0.381749
vt 0.725074 0.708801
vt 0.862475 0.708801
vt 0.113874 0.000202
vt 0.154370 0.255699
vt 0.019774 0.067500
vt 0.339498 0.315682
vt 0.322147 0.420168
vt 0.288967 0.443899
vt 0.423563 0.632098
vt 0.561230 0.625719
vt 0.652259 0.752999
vt 0.558159 0.820297
vt 0.207149 0.502413
vt 0.186083 0.498915
vt 0.182585 0.519981
vt 0.216214 0.780389
vt 0.081618 0.592190
vt 0.539010 0.833992
vt 0.410456 0.812645
vt 0.578581 0.521232
vt 0.443985 0.333033
vt 0.571266 0.242004
vt 0.341745 0.690612
vt 0.317181 0.708180
vt 0.141264 0.833992
vt 0.006667 0.645793
vt 0.135221 0.269394
vt 0.000625 0.081195
vt 0.862475 0.725251
vt 0.999876 0.656551
vt 0.862475 0.450449
vt 0.999876 0.519150
vt 0.248470 0.188401
vt 0.456744 0.608368
vt 0.113874 0.397948
vt 0.338247 0.711678
vt 0.705862 0.430204
s 0
usemtl マテリアル
f 9/1/1 3/2/1 11/3/1
f 34/4/2 24/5/2 12/6/2
f 25/7/3 29/8/3 30/9/3
f 19/10/4 2/11/4 1/12/4
f 14/9/5 27/13/5 16/13/5
f 15/14/6 20/15/6 25/7/6
f 9/16/7 21/17/7 24/5/7
f 10/18/8 22/19/8 23/20/8
f 12/6/9 7/21/9 10/18/9
f 15/22/10 5/23/10 13/24/10
f 31/25/11 32/18/11 23/20/11
f 17/26/12 34/27/12 31/28/12
f 18/29/13 9/16/13 24/5/13
f 6/30/10 11/3/10 5/23/10
f 2/31/14 13/24/14 1/32/14
f 6/33/7 25/7/7 21/17/7
f 7/21/8 26/34/8 22/19/8
f 8/35/9 16/13/9 7/21/9
f 22/19/15 13/36/15 5/37/15
f 21/17/16 14/9/16 8/35/16
f 17/38/17 11/39/17 3/40/17
f 23/20/15 5/37/15 11/39/15
f 24/5/16 8/35/16 12/6/16
f 33/6/5 10/18/5 32/18/5
f 13/36/18 19/41/18 1/42/18
f 26/34/19 16/13/19 28/43/19
f 4/44/12 17/26/12 3/2/12
f 32/18/20 34/27/20 33/6/20
f 28/45/21 30/9/21 29/46/21
f 29/46/4 19/10/4 28/45/4
f 35/47/10 38/48/10 37/49/10
f 43/50/12 44/51/12 39/52/12
f 44/51/9 40/53/9 39/52/9
f 42/54/4 35/55/4 37/56/4
f 39/52/12 47/57/12 48/58/12
f 48/59/15 50/60/15 51/61/15
f 37/56/4 49/62/4 50/63/4
f 42/64/22 44/51/22 43/65/22
f 36/66/23 42/64/23 43/65/23
f 48/59/24 46/67/24 45/68/24
f 39/52/9 46/67/9 47/57/9
f 51/61/25 49/69/25 52/70/25
f 37/49/10 52/71/10 49/72/10
f 9/1/1 4/44/1 3/2/1
f 34/4/26 18/29/26 24/5/26
f 12/6/5 33/6/5 34/4/5
f 25/7/27 20/15/27 29/8/27
f 30/9/5 14/9/5 25/7/5
f 19/10/4 20/73/4 2/11/4
f 14/9/5 30/9/5 27/13/5
f 15/14/28 2/74/28 20/15/28
f 9/16/7 6/33/7 21/17/7
f 10/18/8 7/21/8 22/19/8
f 12/6/9 8/35/9 7/21/9
f 15/22/10 6/30/10 5/23/10
f 23/20/29 17/38/29 31/25/29
f 32/18/5 10/18/5 23/20/5
f 17/26/12 18/75/12 34/27/12
f 18/29/30 4/76/30 9/16/30
f 6/30/10 9/1/10 11/3/10
f 2/31/14 15/22/14 13/24/14
f 6/33/7 15/14/7 25/7/7
f 7/21/8 16/13/8 26/34/8
f 8/35/9 14/9/9 16/13/9
f 22/19/15 26/34/15 13/36/15
f 21/17/16 25/7/16 14/9/16
f 17/38/17 23/20/17 11/39/17
f 23/20/15 22/19/15 5/37/15
f 24/5/16 21/17/16 8/35/16
f 33/6/5 12/6/5 10/18/5
f 13/36/18 26/34/18 19/41/18
f 28/43/31 19/41/31 26/34/31
f 16/13/5 27/13/5 28/43/5
f 4/44/12 18/75/12 17/26/12
f 32/18/20 31/28/20 34/27/20
f 28/45/21 27/13/21 30/9/21
f 29/46/4 20/73/4 19/10/4
f 35/47/10 36/77/10 38/48/10
f 39/52/12 38/48/12 43/50/12
f 38/48/12 36/77/12 43/50/12
f 44/51/9 41/78/9 40/53/9
f 37/56/4 40/53/4 42/54/4
f 40/53/4 41/78/4 42/54/4
f 48/58/12 51/79/12 39/52/12
f 51/79/12 52/71/12 38/48/12
f 39/52/12 51/79/12 38/48/12
f 48/59/15 45/68/15 50/60/15
f 50/63/4 45/80/4 40/53/4
f 45/80/4 46/67/4 40/53/4
f 40/53/4 37/56/4 50/63/4
f 42/64/22 41/78/22 44/51/22
f 36/66/23 35/81/23 42/64/23
f 48/59/24 47/57/24 46/67/24
f 39/52/9 40/53/9 46/67/9
f 51/61/25 50/60/25 49/69/25
f 37/49/10 38/48/10 52/71/10
